<?xml version="1.0" encoding="utf-8"?>
<!-- Generator: Adobe Illustrator 16.0.0, SVG Export Plug-In . SVG Version: 6.00 Build 0)  -->
<!DOCTYPE svg PUBLIC "-//W3C//DTD SVG 1.1//EN" "http://www.w3.org/Graphics/SVG/1.1/DTD/svg11.dtd">
<svg version="1.1" id="Layer_1" xmlns="http://www.w3.org/2000/svg" xmlns:xlink="http://www.w3.org/1999/xlink" x="0px" y="0px"
	 width="796px" height="200px" viewBox="0 0 796 200" enable-background="new 0 0 796 200" xml:space="preserve">
<g id="Background">
	<rect fill="#660000" width="200" height="200"/>
	<path fill="none" d="M75.616,138.91c48.631,0,48.631-78.158,48.631-78.158"/>
</g>
<g id="Overlay">
	<rect x="11" y="10" fill="#DC3522" width="180" height="180"/>
	<g id="Top_bottom_gradients">
		
			<linearGradient id="SVGID_1_" gradientUnits="userSpaceOnUse" x1="306.9995" y1="-284.9995" x2="306.9995" y2="-233.9995" gradientTransform="matrix(1 0 0 -1 -206 -95)">
			<stop  offset="0" style="stop-color:#6D0B0B;stop-opacity:0.5"/>
			<stop  offset="1" style="stop-color:#6D0B0B;stop-opacity:0"/>
		</linearGradient>
		<rect x="11" y="139" fill="url(#SVGID_1_)" width="180" height="51"/>
		
			<linearGradient id="SVGID_2_" gradientUnits="userSpaceOnUse" x1="306.9995" y1="-159" x2="306.9995" y2="-105" gradientTransform="matrix(1 0 0 -1 -206 -95)">
			<stop  offset="0" style="stop-color:#FFB400;stop-opacity:0"/>
			<stop  offset="0.159" style="stop-color:#FFB605;stop-opacity:0.0556"/>
			<stop  offset="0.357" style="stop-color:#FFBA15;stop-opacity:0.125"/>
			<stop  offset="0.5758" style="stop-color:#FFC12E;stop-opacity:0.2015"/>
			<stop  offset="0.8077" style="stop-color:#FFCC51;stop-opacity:0.2827"/>
			<stop  offset="1" style="stop-color:#FFD674;stop-opacity:0.35"/>
		</linearGradient>
		<rect x="11" y="10" fill="url(#SVGID_2_)" width="180" height="54"/>
	</g>
</g>
<g id="Swirls">
	<g id="Right_swirl">
		<g>
			<defs>
				<path id="SVGID_3_" d="M11.696,161.637c0,0-10.75-75.818,43.672-75.818c54.422,0,41.657,0,88.688,0
					c47.031,0,47.031-75.818,47.031-75.818h96.08v186.008h-296.3L11.696,161.637z"/>
			</defs>
			<clipPath id="SVGID_4_">
				<use xlink:href="#SVGID_3_"  overflow="visible"/>
			</clipPath>
			
				<linearGradient id="SVGID_5_" gradientUnits="userSpaceOnUse" x1="635" y1="50.0005" x2="635" y2="104.0005" gradientTransform="matrix(0 1 1 0 87 -535)">
				<stop  offset="0" style="stop-color:#FFB400;stop-opacity:0"/>
				<stop  offset="0.159" style="stop-color:#FFB605;stop-opacity:0.0556"/>
				<stop  offset="0.357" style="stop-color:#FFBA15;stop-opacity:0.125"/>
				<stop  offset="0.5758" style="stop-color:#FFC12E;stop-opacity:0.2015"/>
				<stop  offset="0.8077" style="stop-color:#FFCC51;stop-opacity:0.2827"/>
				<stop  offset="1" style="stop-color:#FFD674;stop-opacity:0.35"/>
			</linearGradient>
			<rect x="137" y="10" clip-path="url(#SVGID_4_)" fill="url(#SVGID_5_)" width="54" height="180"/>
		</g>
	</g>
	<g id="Left_swirl">
		<g>
			<defs>
				<path id="SVGID_6_" d="M11.696,161.637c0,0-10.75-75.818,43.672-75.818c54.422,0,41.657,0,88.688,0
					c47.031,0,47.031-75.818,47.031-75.818h96.08v186.008h-296.3L11.696,161.637z"/>
			</defs>
			<clipPath id="SVGID_7_">
				<use xlink:href="#SVGID_6_"  overflow="visible"/>
			</clipPath>
			
				<linearGradient id="SVGID_8_" gradientUnits="userSpaceOnUse" x1="663.5" y1="-73.4995" x2="663.5" y2="-22.4995" gradientTransform="matrix(0 1 1 0 84.5 -563.5)">
				<stop  offset="0" style="stop-color:#6D0B0B;stop-opacity:0.5"/>
				<stop  offset="1" style="stop-color:#6D0B0B;stop-opacity:0"/>
			</linearGradient>
			<rect x="11" y="10" clip-path="url(#SVGID_7_)" fill="url(#SVGID_8_)" width="51" height="180"/>
		</g>
	</g>
</g>
<g id="Layer_5">
	<g enable-background="new    ">
		<path fill="#FFFFFF" d="M38.146,45.104h22.364v64.684c0,7.234,0.854,12.518,2.563,15.849c2.657,5.902,8.448,8.854,17.372,8.854
			c8.876,0,14.642-2.951,17.3-8.854c1.708-3.331,2.563-8.614,2.563-15.849V45.104h22.364v64.735c0,11.194-1.736,19.911-5.207,26.15
			c-6.467,11.433-18.808,17.148-37.021,17.148s-30.578-5.716-37.092-17.148c-3.472-6.239-5.207-14.956-5.207-26.15V45.104z"/>
		<path fill="#FFFFFF" d="M163.901,150.424h-21.864V45.104h21.864V150.424z"/>
		<path fill="#FFFFFF" d="M295.84,104.838c-6.165,5.145-14.969,7.717-26.412,7.717h-21.929v37.869h-21.864V45.104h45.221
			c10.426,0,18.737,2.715,24.936,8.146c6.198,5.431,9.298,13.838,9.298,25.223C305.089,90.905,302.005,99.693,295.84,104.838z
			 M279.044,66.897c-2.787-2.333-6.691-3.501-11.713-3.501h-19.832v31.01h19.832c5.021,0,8.926-1.262,11.713-3.787
			c2.786-2.524,4.181-6.525,4.181-12.004C283.225,73.138,281.83,69.231,279.044,66.897z"/>
		<path fill="#FFFFFF" d="M351.94,103.052c3.791-0.476,6.501-1.072,8.134-1.786c2.927-1.238,4.391-3.168,4.391-5.788
			c0-3.19-1.123-5.395-3.368-6.609c-2.245-1.214-5.541-1.821-9.886-1.821c-4.877,0-8.33,1.19-10.357,3.572
			c-1.449,1.763-2.415,4.145-2.897,7.146h-19.648c0.43-6.812,2.343-12.408,5.74-16.791c5.406-6.859,14.687-10.289,27.844-10.289
			c8.562,0,16.169,1.691,22.819,5.072c6.649,3.383,9.975,9.766,9.975,19.149v35.726c0,2.478,0.047,5.479,0.143,9.003
			c0.144,2.668,0.547,4.478,1.215,5.431c0.667,0.953,1.667,1.739,3.001,2.357v3.001h-22.149c-0.62-1.572-1.049-3.048-1.286-4.43
			c-0.239-1.381-0.429-2.953-0.572-4.716c-2.826,3.049-6.085,5.645-9.774,7.788c-4.407,2.524-9.391,3.787-14.948,3.787
			c-7.092,0-12.948-2.014-17.572-6.038s-6.935-9.729-6.935-17.112c0-9.574,3.719-16.506,11.156-20.793
			c4.079-2.333,10.078-4.001,17.996-5.001L351.94,103.052z M364.393,112.555c-1.305,0.811-2.621,1.465-3.948,1.965
			c-1.328,0.5-3.15,0.965-5.468,1.394l-4.636,0.857c-4.345,0.763-7.466,1.691-9.36,2.786c-3.207,1.858-4.811,4.74-4.811,8.646
			c0,3.478,0.979,5.991,2.938,7.538c1.958,1.549,4.341,2.322,7.146,2.322c4.45,0,8.548-1.286,12.297-3.858s5.695-7.263,5.841-14.075
			V112.555z"/>
		<path fill="#FFFFFF" d="M394.474,87.761V73.257h10.861V51.535h20.149v21.722h12.646v14.504h-12.646v41.156
			c0,3.191,0.403,5.181,1.214,5.966c0.81,0.786,3.287,1.18,7.432,1.18c0.618,0,1.273-0.012,1.965-0.036
			c0.689-0.023,1.368-0.06,2.036-0.107v15.22l-9.646,0.356c-9.623,0.333-16.196-1.333-19.721-5.001
			c-2.287-2.333-3.43-5.931-3.43-10.789V87.761H394.474z"/>
		<path fill="#FFFFFF" d="M443.203,87.761V73.257h10.861V51.535h20.149v21.722h12.646v14.504h-12.646v41.156
			c0,3.191,0.403,5.181,1.214,5.966c0.81,0.786,3.287,1.18,7.432,1.18c0.618,0,1.273-0.012,1.965-0.036
			c0.689-0.023,1.368-0.06,2.036-0.107v15.22l-9.646,0.356c-9.623,0.333-16.196-1.333-19.721-5.001
			c-2.287-2.333-3.43-5.931-3.43-10.789V87.761H443.203z"/>
		<path fill="#FFFFFF" d="M550.687,74.119c5.433,2.435,9.919,6.274,13.458,11.521c3.189,4.628,5.259,9.994,6.205,16.102
			c0.548,3.578,0.771,8.73,0.671,15.457h-56.724c0.316,7.812,3.031,13.29,8.145,16.434c3.11,1.954,6.853,2.93,11.229,2.93
			c4.639,0,8.407-1.19,11.307-3.573c1.581-1.286,2.979-3.072,4.191-5.358h20.79c-0.548,4.621-3.064,9.313-7.55,14.076
			c-6.977,7.573-16.742,11.36-29.3,11.36c-10.365,0-19.51-3.194-27.434-9.582c-7.923-6.389-11.884-16.782-11.884-31.181
			c0-13.491,3.576-23.837,10.729-31.035c7.152-7.199,16.437-10.8,27.851-10.8C539.147,70.47,545.254,71.687,550.687,74.119z
			 M520.223,91.711c-2.879,2.967-4.687,6.984-5.425,12.056h35.082c-0.37-5.406-2.178-9.508-5.425-12.307
			c-3.246-2.799-7.272-4.199-12.077-4.199C527.15,87.261,523.1,88.745,520.223,91.711z"/>
		<path fill="#FFFFFF" d="M624.583,70.72c0.262,0.024,0.846,0.061,1.751,0.107V91.69c-1.286-0.143-2.43-0.237-3.43-0.285
			c-1.001-0.047-1.812-0.071-2.43-0.071c-8.193,0-13.695,2.668-16.505,8.002c-1.572,3.001-2.358,7.622-2.358,13.861v37.227h-20.506
			V72.542h19.435v13.576c3.144-5.191,5.882-8.741,8.217-10.646c3.811-3.191,8.764-4.787,14.861-4.787
			C623.999,70.685,624.321,70.696,624.583,70.72z"/>
		<path fill="#FFFFFF" d="M701.068,77.008c5.099,4.216,7.648,11.206,7.648,20.971v52.445h-20.864v-47.372
			c0-4.097-0.543-7.24-1.631-9.432c-1.987-4.001-5.77-6.002-11.349-6.002c-6.856,0-11.562,2.93-14.114,8.788
			c-1.324,3.098-1.986,7.051-1.986,11.861v42.156h-20.364V72.685h19.721v11.361c2.608-4.002,5.075-6.883,7.4-8.646
			c4.173-3.145,9.462-4.716,15.866-4.716C689.411,70.685,695.968,72.792,701.068,77.008z"/>
		<path fill="#FFFFFF" d="M743.442,125.559c0.431,3.621,1.364,6.193,2.8,7.717c2.536,2.715,7.227,4.073,14.071,4.073
			c4.021,0,7.216-0.596,9.585-1.787c2.369-1.189,3.554-2.976,3.554-5.358c0-2.286-0.955-4.024-2.863-5.216
			c-1.909-1.19-9.011-3.239-21.304-6.145c-8.85-2.19-15.085-4.931-18.704-8.218c-3.621-3.238-5.431-7.906-5.431-14.004
			c0-7.192,2.828-13.373,8.485-18.542c5.656-5.168,13.617-7.752,23.88-7.752c9.737,0,17.675,1.941,23.808,5.823
			c6.134,3.883,9.655,10.587,10.562,20.113h-20.363c-0.287-2.619-1.027-4.691-2.221-6.216c-2.246-2.763-6.067-4.145-11.465-4.145
			c-4.441,0-7.605,0.691-9.492,2.072c-1.887,1.382-2.83,3.001-2.83,4.858c0,2.335,1.002,4.026,3.01,5.073
			c2.005,1.097,9.092,2.978,21.261,5.645c8.112,1.906,14.193,4.787,18.242,8.646c4.002,3.906,6.002,8.789,6.002,14.647
			c0,7.717-2.876,14.017-8.627,18.899c-5.752,4.882-14.642,7.323-26.669,7.323c-12.267,0-21.323-2.584-27.17-7.752
			c-5.848-5.168-8.771-11.754-8.771-19.757H743.442z"/>
	</g>
	<g opacity="0.5" enable-background="new    ">
		<path fill="#FFFFFF" d="M229.256,164.236v15.312c0,1.799,0.34,3.294,1.02,4.485c1.008,1.799,2.708,2.698,5.099,2.698
			c2.867,0,4.815-0.973,5.847-2.917c0.555-1.057,0.833-2.479,0.833-4.267v-15.312h3.39v13.912c0,3.046-0.412,5.391-1.235,7.031
			c-1.512,2.991-4.366,4.485-8.562,4.485c-4.197,0-7.045-1.494-8.545-4.485c-0.824-1.641-1.235-3.985-1.235-7.031v-13.912H229.256z"
			/>
		<path fill="#FFFFFF" d="M251.971,183.342c0.092,1.012,0.35,1.787,0.774,2.327c0.78,0.979,2.134,1.467,4.062,1.467
			c1.147,0,2.157-0.244,3.029-0.733s1.308-1.245,1.308-2.268c0-0.776-0.349-1.366-1.045-1.771c-0.446-0.248-1.325-0.534-2.639-0.86
			l-2.451-0.607c-1.565-0.382-2.719-0.81-3.461-1.281c-1.325-0.82-1.988-1.956-1.988-3.406c0-1.709,0.624-3.092,1.872-4.148
			c1.247-1.057,2.925-1.585,5.033-1.585c2.757,0,4.745,0.798,5.964,2.395c0.764,1.012,1.134,2.103,1.111,3.271h-2.867
			c-0.058-0.683-0.305-1.303-0.742-1.861c-0.713-0.794-1.951-1.191-3.711-1.191c-1.174,0-2.063,0.219-2.667,0.655
			c-0.604,0.438-0.906,1.014-0.906,1.73c0,0.784,0.397,1.412,1.191,1.883c0.458,0.279,1.134,0.526,2.027,0.74l2.045,0.489
			c2.222,0.528,3.711,1.039,4.467,1.534c1.181,0.775,1.771,1.995,1.771,3.659c0,1.607-0.618,2.996-1.853,4.165
			c-1.235,1.169-3.116,1.754-5.643,1.754c-2.72,0-4.646-0.61-5.779-1.83c-1.132-1.22-1.739-2.729-1.818-4.527H251.971z"/>
		<path fill="#FFFFFF" d="M278.589,171.445c1.195,0.602,2.106,1.38,2.732,2.335c0.603,0.911,1.005,1.974,1.207,3.188
			c0.179,0.832,0.269,2.158,0.269,3.979H269.66c0.056,1.838,0.485,3.312,1.289,4.422s2.047,1.666,3.731,1.666
			c1.573,0,2.828-0.525,3.765-1.576c0.524-0.609,0.896-1.315,1.115-2.117h2.984c-0.079,0.663-0.34,1.402-0.784,2.218
			c-0.444,0.815-0.94,1.481-1.486,1.998c-0.915,0.899-2.047,1.506-3.397,1.821c-0.725,0.18-1.545,0.27-2.46,0.27
			c-2.234,0-4.128-0.817-5.681-2.453c-1.553-1.636-2.329-3.927-2.329-6.872c0-2.9,0.782-5.255,2.346-7.065
			c1.564-1.81,3.609-2.715,6.134-2.715C276.159,170.543,277.394,170.844,278.589,171.445z M279.676,178.536
			c-0.123-1.315-0.407-2.366-0.853-3.153c-0.825-1.462-2.202-2.192-4.13-2.192c-1.382,0-2.542,0.503-3.478,1.509
			c-0.937,1.007-1.433,2.285-1.488,3.837H279.676z"/>
		<path fill="#FFFFFF" d="M286.725,170.947h2.884v3.12c0.236-0.607,0.815-1.347,1.737-2.218s1.984-1.307,3.187-1.307
			c0.056,0,0.152,0.006,0.287,0.017c0.135,0.012,0.365,0.034,0.691,0.067v3.204c-0.18-0.034-0.346-0.056-0.497-0.067
			c-0.152-0.011-0.318-0.017-0.498-0.017c-1.529,0-2.704,0.491-3.524,1.476c-0.821,0.983-1.231,2.116-1.231,3.397v10.388h-3.036
			V170.947z"/>
		<path fill="#FFFFFF" d="M308.9,164.236h3.389v24.771H308.9V164.236z"/>
		<path fill="#FFFFFF" d="M317.332,170.947h2.883v2.563c0.854-1.057,1.759-1.815,2.715-2.276c0.957-0.461,2.017-0.691,3.187-0.691
			c2.564,0,4.295,0.894,5.193,2.681c0.496,0.979,0.742,2.378,0.742,4.199v11.585h-3.086v-11.383c0-1.102-0.162-1.989-0.488-2.664
			c-0.539-1.124-1.518-1.687-2.934-1.687c-0.721,0-1.311,0.073-1.771,0.22c-0.832,0.247-1.562,0.741-2.192,1.483
			c-0.506,0.597-0.835,1.212-0.987,1.847c-0.152,0.636-0.228,1.543-0.228,2.724v9.46h-3.035V170.947z"/>
		<path fill="#FFFFFF" d="M337.146,165.905h3.069v5.042h2.883v2.479h-2.883v11.787c0,0.63,0.213,1.051,0.641,1.265
			c0.236,0.124,0.629,0.186,1.181,0.186c0.146,0,0.303-0.004,0.472-0.012c0.169-0.007,0.365-0.026,0.59-0.056v2.411
			c-0.348,0.102-0.711,0.174-1.087,0.219c-0.377,0.045-0.784,0.068-1.223,0.068c-1.417,0-2.378-0.363-2.884-1.088
			c-0.506-0.726-0.759-1.667-0.759-2.825v-11.955H334.7v-2.479h2.445V165.905z"/>
		<path fill="#FFFFFF" d="M357.289,171.445c1.196,0.602,2.106,1.38,2.732,2.335c0.604,0.911,1.005,1.974,1.207,3.188
			c0.179,0.832,0.268,2.158,0.268,3.979H348.36c0.056,1.838,0.485,3.312,1.288,4.422s2.047,1.666,3.731,1.666
			c1.572,0,2.827-0.525,3.765-1.576c0.523-0.609,0.896-1.315,1.114-2.117h2.984c-0.078,0.663-0.34,1.402-0.784,2.218
			s-0.939,1.481-1.485,1.998c-0.915,0.899-2.048,1.506-3.397,1.821c-0.726,0.18-1.546,0.27-2.461,0.27
			c-2.234,0-4.128-0.817-5.681-2.453s-2.329-3.927-2.329-6.872c0-2.9,0.782-5.255,2.347-7.065c1.563-1.81,3.608-2.715,6.134-2.715
			C354.859,170.543,356.094,170.844,357.289,171.445z M358.377,178.536c-0.123-1.315-0.407-2.366-0.854-3.153
			c-0.824-1.462-2.201-2.192-4.13-2.192c-1.382,0-2.541,0.503-3.478,1.509c-0.937,1.007-1.433,2.285-1.488,3.837H358.377z"/>
		<path fill="#FFFFFF" d="M365.426,170.947h2.883v3.12c0.236-0.607,0.815-1.347,1.737-2.218s1.984-1.307,3.188-1.307
			c0.056,0,0.151,0.006,0.286,0.017c0.135,0.012,0.365,0.034,0.691,0.067v3.204c-0.18-0.034-0.346-0.056-0.497-0.067
			c-0.152-0.011-0.318-0.017-0.498-0.017c-1.528,0-2.703,0.491-3.524,1.476c-0.82,0.983-1.23,2.116-1.23,3.397v10.388h-3.035
			V170.947z"/>
		<path fill="#FFFFFF" d="M378.258,165.434c0.708-1.034,2.074-1.552,4.098-1.552c0.191,0,0.388,0.006,0.59,0.017
			c0.202,0.012,0.433,0.028,0.691,0.051v2.766c-0.318-0.022-0.548-0.036-0.69-0.042s-0.275-0.009-0.4-0.009
			c-0.933,0-1.49,0.239-1.672,0.717c-0.182,0.479-0.272,1.695-0.272,3.651h3.035v2.395h-3.035v15.581H377.6v-15.581h-2.513v-2.395
			h2.513v-2.833C377.645,166.939,377.864,166.018,378.258,165.434z"/>
		<path fill="#FFFFFF" d="M396.116,178.078c0.697-0.09,1.164-0.382,1.4-0.876c0.134-0.271,0.201-0.659,0.201-1.168
			c0-1.038-0.367-1.791-1.102-2.26c-0.735-0.468-1.787-0.702-3.155-0.702c-1.582,0-2.704,0.43-3.366,1.288
			c-0.37,0.475-0.611,1.181-0.724,2.118h-2.833c0.056-2.232,0.777-3.785,2.164-4.659c1.387-0.873,2.995-1.311,4.825-1.311
			c2.122,0,3.847,0.405,5.171,1.215c1.314,0.809,1.971,2.068,1.971,3.777v10.405c0,0.314,0.064,0.567,0.194,0.758
			c0.129,0.191,0.401,0.286,0.817,0.286c0.136,0,0.287-0.008,0.456-0.025c0.168-0.017,0.348-0.041,0.539-0.075v2.242
			c-0.472,0.135-0.832,0.22-1.079,0.253c-0.247,0.034-0.585,0.051-1.012,0.051c-1.046,0-1.805-0.371-2.276-1.112
			c-0.248-0.394-0.422-0.95-0.522-1.669c-0.619,0.809-1.507,1.512-2.665,2.107c-1.158,0.595-2.434,0.894-3.828,0.894
			c-1.675,0-3.043-0.509-4.105-1.524c-1.062-1.017-1.594-2.288-1.594-3.814c0-1.674,0.522-2.971,1.568-3.891
			c1.045-0.921,2.417-1.488,4.114-1.701L396.116,178.078z M389.726,186.278c0.641,0.504,1.399,0.757,2.276,0.757
			c1.067,0,2.102-0.247,3.103-0.741c1.687-0.819,2.529-2.16,2.529-4.023v-2.441c-0.37,0.237-0.847,0.435-1.431,0.592
			c-0.583,0.158-1.155,0.271-1.716,0.338l-1.835,0.236c-1.1,0.146-1.926,0.376-2.48,0.689c-0.938,0.527-1.408,1.369-1.408,2.523
			C388.764,185.083,389.084,185.773,389.726,186.278z"/>
		<path fill="#FFFFFF" d="M417.574,171.909c1.276,0.989,2.043,2.692,2.302,5.109h-2.951c-0.18-1.113-0.59-2.038-1.23-2.774
			s-1.67-1.104-3.086-1.104c-1.934,0-3.316,0.943-4.148,2.83c-0.54,1.224-0.81,2.733-0.81,4.53c0,1.808,0.382,3.329,1.146,4.564
			s1.968,1.853,3.609,1.853c1.259,0,2.257-0.384,2.993-1.15c0.736-0.768,1.245-1.817,1.525-3.149h2.951
			c-0.337,2.395-1.18,4.146-2.529,5.252c-1.349,1.107-3.075,1.661-5.177,1.661c-2.361,0-4.244-0.862-5.649-2.588
			s-2.107-3.882-2.107-6.467c0-3.171,0.77-5.639,2.31-7.403c1.541-1.765,3.502-2.647,5.886-2.647
			C414.643,170.425,416.299,170.92,417.574,171.909z"/>
		<path fill="#FFFFFF" d="M434.066,171.445c1.196,0.602,2.106,1.38,2.732,2.335c0.604,0.911,1.005,1.974,1.207,3.188
			c0.179,0.832,0.268,2.158,0.268,3.979h-13.136c0.056,1.838,0.485,3.312,1.288,4.422s2.047,1.666,3.731,1.666
			c1.572,0,2.827-0.525,3.765-1.576c0.523-0.609,0.896-1.315,1.114-2.117h2.984c-0.078,0.663-0.34,1.402-0.784,2.218
			s-0.939,1.481-1.485,1.998c-0.915,0.899-2.048,1.506-3.397,1.821c-0.726,0.18-1.546,0.27-2.461,0.27
			c-2.234,0-4.128-0.817-5.681-2.453s-2.329-3.927-2.329-6.872c0-2.9,0.782-5.255,2.347-7.065c1.563-1.81,3.608-2.715,6.134-2.715
			C431.637,170.543,432.871,170.844,434.066,171.445z M435.154,178.536c-0.123-1.315-0.407-2.366-0.854-3.153
			c-0.824-1.462-2.201-2.192-4.13-2.192c-1.382,0-2.541,0.503-3.478,1.509c-0.937,1.007-1.433,2.285-1.488,3.837H435.154z"/>
		<path fill="#FFFFFF" d="M452.27,164.236h9.901c3.361,0,5.969,1.208,7.821,3.625c1.653,2.182,2.479,4.975,2.479,8.381
			c0,2.631-0.488,5.009-1.465,7.134c-1.719,3.755-4.676,5.632-8.869,5.632h-9.868V164.236z M461.513,186.141
			c1.11,0,2.022-0.117,2.737-0.354c1.274-0.438,2.319-1.281,3.133-2.529c0.648-1.001,1.115-2.282,1.401-3.845
			c0.165-0.934,0.247-1.799,0.247-2.598c0-3.068-0.597-5.452-1.789-7.149s-3.113-2.547-5.763-2.547h-5.82v19.021H461.513z"/>
		<path fill="#FFFFFF" d="M487.809,171.445c1.196,0.602,2.106,1.38,2.732,2.335c0.604,0.911,1.005,1.974,1.207,3.188
			c0.179,0.832,0.268,2.158,0.268,3.979H478.88c0.056,1.838,0.485,3.312,1.288,4.422s2.047,1.666,3.731,1.666
			c1.572,0,2.827-0.525,3.765-1.576c0.523-0.609,0.896-1.315,1.114-2.117h2.984c-0.078,0.663-0.34,1.402-0.784,2.218
			s-0.939,1.481-1.485,1.998c-0.915,0.899-2.048,1.506-3.397,1.821c-0.726,0.18-1.546,0.27-2.461,0.27
			c-2.234,0-4.128-0.817-5.681-2.453s-2.329-3.927-2.329-6.872c0-2.9,0.782-5.255,2.347-7.065c1.563-1.81,3.608-2.715,6.134-2.715
			C485.379,170.543,486.613,170.844,487.809,171.445z M488.896,178.536c-0.123-1.315-0.407-2.366-0.854-3.153
			c-0.824-1.462-2.201-2.192-4.13-2.192c-1.382,0-2.541,0.503-3.478,1.509c-0.937,1.007-1.433,2.285-1.488,3.837H488.896z"/>
		<path fill="#FFFFFF" d="M497.665,183.342c0.092,1.012,0.35,1.787,0.774,2.327c0.78,0.979,2.134,1.467,4.062,1.467
			c1.147,0,2.157-0.244,3.029-0.733s1.309-1.245,1.309-2.268c0-0.776-0.349-1.366-1.046-1.771c-0.445-0.248-1.325-0.534-2.639-0.86
			l-2.451-0.607c-1.565-0.382-2.719-0.81-3.462-1.281c-1.325-0.82-1.987-1.956-1.987-3.406c0-1.709,0.623-3.092,1.871-4.148
			c1.247-1.057,2.925-1.585,5.032-1.585c2.758,0,4.745,0.798,5.965,2.395c0.763,1.012,1.134,2.103,1.111,3.271h-2.867
			c-0.058-0.683-0.305-1.303-0.742-1.861c-0.714-0.794-1.951-1.191-3.711-1.191c-1.174,0-2.063,0.219-2.667,0.655
			c-0.604,0.438-0.906,1.014-0.906,1.73c0,0.784,0.396,1.412,1.19,1.883c0.458,0.279,1.134,0.526,2.027,0.74l2.045,0.489
			c2.222,0.528,3.711,1.039,4.467,1.534c1.181,0.775,1.771,1.995,1.771,3.659c0,1.607-0.617,2.996-1.853,4.165
			c-1.234,1.169-3.115,1.754-5.643,1.754c-2.72,0-4.646-0.61-5.778-1.83c-1.133-1.22-1.739-2.729-1.818-4.527H497.665z"/>
		<path fill="#FFFFFF" d="M513.128,164.236h3.086v3.439h-3.086V164.236z M513.128,171.032h3.086v17.976h-3.086V171.032z"/>
		<path fill="#FFFFFF" d="M530.842,171.673c0.57,0.394,1.153,0.967,1.747,1.72v-2.276h2.799v16.425c0,2.293-0.336,4.103-1.009,5.43
			c-1.255,2.45-3.624,3.676-7.108,3.676c-1.938,0-3.569-0.436-4.892-1.307c-1.321-0.871-2.062-2.234-2.219-4.089h3.086
			c0.146,0.809,0.436,1.433,0.872,1.871c0.682,0.675,1.756,1.012,3.221,1.012c2.314,0,3.829-0.82,4.544-2.462
			c0.426-0.967,0.621-2.692,0.588-5.177c-0.605,0.922-1.333,1.607-2.184,2.058c-0.852,0.449-1.977,0.674-3.377,0.674
			c-1.948,0-3.653-0.693-5.114-2.082s-2.192-3.685-2.192-6.889c0-3.024,0.736-5.385,2.209-7.082c1.473-1.698,3.25-2.547,5.333-2.547
			C528.557,170.627,529.789,170.976,530.842,171.673z M531.213,174.927c-0.917-1.079-2.086-1.618-3.507-1.618
			c-2.125,0-3.579,1-4.361,3.001c-0.414,1.068-0.621,2.468-0.621,4.199c0,2.035,0.411,3.583,1.233,4.646
			c0.821,1.062,1.926,1.594,3.313,1.594c2.169,0,3.696-0.983,4.579-2.951c0.492-1.112,0.739-2.411,0.739-3.896
			C532.589,177.665,532.13,176.007,531.213,174.927z"/>
		<path fill="#FFFFFF" d="M540.008,170.947h2.884v2.563c0.854-1.057,1.76-1.815,2.715-2.276c0.956-0.461,2.018-0.691,3.188-0.691
			c2.563,0,4.294,0.894,5.193,2.681c0.495,0.979,0.742,2.378,0.742,4.199v11.585h-3.086v-11.383c0-1.102-0.163-1.989-0.489-2.664
			c-0.539-1.124-1.518-1.687-2.934-1.687c-0.72,0-1.31,0.073-1.771,0.22c-0.832,0.247-1.563,0.741-2.192,1.483
			c-0.506,0.597-0.835,1.212-0.986,1.847c-0.152,0.636-0.228,1.543-0.228,2.724v9.46h-3.036V170.947z"/>
		<path fill="#FFFFFF" d="M569.535,164.236h11.085c2.191,0,3.961,0.621,5.309,1.863c1.347,1.242,2.021,2.987,2.021,5.235
			c0,1.935-0.601,3.617-1.804,5.051c-1.202,1.434-3.042,2.15-5.52,2.15h-7.735v10.472h-3.355V164.236z M582.551,167.643
			c-0.736-0.349-1.747-0.523-3.03-0.523h-6.63v8.584h6.63c1.495,0,2.71-0.32,3.642-0.962c0.932-0.641,1.397-1.771,1.397-3.389
			C584.56,169.531,583.891,168.295,582.551,167.643z"/>
		<path fill="#FFFFFF" d="M601.524,178.078c0.697-0.09,1.164-0.382,1.4-0.876c0.134-0.271,0.201-0.659,0.201-1.168
			c0-1.038-0.367-1.791-1.102-2.26c-0.735-0.468-1.787-0.702-3.155-0.702c-1.582,0-2.704,0.43-3.366,1.288
			c-0.37,0.475-0.611,1.181-0.724,2.118h-2.833c0.056-2.232,0.777-3.785,2.164-4.659c1.387-0.873,2.995-1.311,4.825-1.311
			c2.122,0,3.847,0.405,5.171,1.215c1.314,0.809,1.971,2.068,1.971,3.777v10.405c0,0.314,0.064,0.567,0.194,0.758
			c0.129,0.191,0.401,0.286,0.817,0.286c0.136,0,0.287-0.008,0.456-0.025c0.168-0.017,0.348-0.041,0.539-0.075v2.242
			c-0.472,0.135-0.832,0.22-1.079,0.253c-0.247,0.034-0.585,0.051-1.012,0.051c-1.046,0-1.805-0.371-2.276-1.112
			c-0.248-0.394-0.422-0.95-0.522-1.669c-0.619,0.809-1.507,1.512-2.665,2.107c-1.158,0.595-2.434,0.894-3.828,0.894
			c-1.675,0-3.043-0.509-4.105-1.524c-1.062-1.017-1.594-2.288-1.594-3.814c0-1.674,0.522-2.971,1.568-3.891
			c1.045-0.921,2.417-1.488,4.114-1.701L601.524,178.078z M595.134,186.278c0.641,0.504,1.399,0.757,2.276,0.757
			c1.067,0,2.102-0.247,3.103-0.741c1.687-0.819,2.529-2.16,2.529-4.023v-2.441c-0.37,0.237-0.847,0.435-1.431,0.592
			c-0.583,0.158-1.155,0.271-1.716,0.338l-1.835,0.236c-1.1,0.146-1.926,0.376-2.48,0.689c-0.938,0.527-1.408,1.369-1.408,2.523
			C594.172,185.083,594.492,185.773,595.134,186.278z"/>
		<path fill="#FFFFFF" d="M611.659,165.905h3.069v5.042h2.883v2.479h-2.883v11.787c0,0.63,0.213,1.051,0.641,1.265
			c0.236,0.124,0.629,0.186,1.181,0.186c0.146,0,0.303-0.004,0.472-0.012c0.169-0.007,0.365-0.026,0.59-0.056v2.411
			c-0.348,0.102-0.711,0.174-1.087,0.219c-0.377,0.045-0.784,0.068-1.223,0.068c-1.417,0-2.378-0.363-2.884-1.088
			c-0.506-0.726-0.759-1.667-0.759-2.825v-11.955h-2.445v-2.479h2.445V165.905z"/>
		<path fill="#FFFFFF" d="M621.254,165.905h3.069v5.042h2.883v2.479h-2.883v11.787c0,0.63,0.213,1.051,0.641,1.265
			c0.236,0.124,0.629,0.186,1.181,0.186c0.146,0,0.303-0.004,0.472-0.012c0.169-0.007,0.365-0.026,0.59-0.056v2.411
			c-0.348,0.102-0.711,0.174-1.087,0.219c-0.377,0.045-0.784,0.068-1.223,0.068c-1.417,0-2.378-0.363-2.884-1.088
			c-0.506-0.726-0.759-1.667-0.759-2.825v-11.955h-2.445v-2.479h2.445V165.905z"/>
		<path fill="#FFFFFF" d="M641.397,171.445c1.196,0.602,2.106,1.38,2.732,2.335c0.604,0.911,1.005,1.974,1.207,3.188
			c0.179,0.832,0.268,2.158,0.268,3.979h-13.136c0.056,1.838,0.485,3.312,1.288,4.422s2.047,1.666,3.731,1.666
			c1.572,0,2.827-0.525,3.765-1.576c0.523-0.609,0.896-1.315,1.114-2.117h2.984c-0.078,0.663-0.34,1.402-0.784,2.218
			s-0.939,1.481-1.485,1.998c-0.915,0.899-2.048,1.506-3.397,1.821c-0.726,0.18-1.546,0.27-2.461,0.27
			c-2.234,0-4.128-0.817-5.681-2.453s-2.329-3.927-2.329-6.872c0-2.9,0.782-5.255,2.347-7.065c1.563-1.81,3.608-2.715,6.134-2.715
			C638.968,170.543,640.202,170.844,641.397,171.445z M642.485,178.536c-0.123-1.315-0.407-2.366-0.854-3.153
			c-0.824-1.462-2.201-2.192-4.13-2.192c-1.382,0-2.541,0.503-3.478,1.509c-0.937,1.007-1.433,2.285-1.488,3.837H642.485z"/>
		<path fill="#FFFFFF" d="M649.534,170.947h2.883v3.12c0.236-0.607,0.815-1.347,1.737-2.218s1.984-1.307,3.188-1.307
			c0.056,0,0.151,0.006,0.286,0.017c0.135,0.012,0.365,0.034,0.691,0.067v3.204c-0.18-0.034-0.346-0.056-0.497-0.067
			c-0.152-0.011-0.318-0.017-0.498-0.017c-1.528,0-2.703,0.491-3.524,1.476c-0.82,0.983-1.23,2.116-1.23,3.397v10.388h-3.035
			V170.947z"/>
		<path fill="#FFFFFF" d="M660.949,170.947h2.884v2.563c0.854-1.057,1.76-1.815,2.715-2.276c0.956-0.461,2.018-0.691,3.188-0.691
			c2.563,0,4.294,0.894,5.193,2.681c0.495,0.979,0.742,2.378,0.742,4.199v11.585h-3.086v-11.383c0-1.102-0.163-1.989-0.489-2.664
			c-0.539-1.124-1.518-1.687-2.934-1.687c-0.72,0-1.31,0.073-1.771,0.22c-0.832,0.247-1.563,0.741-2.192,1.483
			c-0.506,0.597-0.835,1.212-0.986,1.847c-0.152,0.636-0.228,1.543-0.228,2.724v9.46h-3.036V170.947z"/>
		<path fill="#FFFFFF" d="M690.157,164.236h3.355v21.82h12.428v2.951h-15.783V164.236z"/>
		<path fill="#FFFFFF" d="M708.959,164.236h3.086v3.439h-3.086V164.236z M708.959,171.032h3.086v17.976h-3.086V171.032z"/>
		<path fill="#FFFFFF" d="M716.378,164.151h2.951v8.988c0.666-0.865,1.462-1.526,2.387-1.981c0.926-0.455,1.931-0.683,3.014-0.683
			c2.257,0,4.089,0.772,5.493,2.318c1.405,1.546,2.108,3.825,2.108,6.838c0,2.855-0.694,5.228-2.083,7.116
			c-1.388,1.889-3.312,2.833-5.772,2.833c-1.377,0-2.539-0.332-3.487-0.995c-0.563-0.394-1.168-1.022-1.811-1.889v2.311h-2.8
			V164.151z M727.984,184.943c0.817-1.304,1.227-3.023,1.227-5.159c0-1.9-0.409-3.475-1.227-4.722
			c-0.818-1.248-2.022-1.872-3.612-1.872c-1.388,0-2.603,0.512-3.646,1.534c-1.043,1.023-1.564,2.71-1.564,5.06
			c0,1.697,0.214,3.074,0.643,4.131c0.801,1.99,2.295,2.985,4.483,2.985C725.934,186.9,727.166,186.248,727.984,184.943z"/>
		<path fill="#FFFFFF" d="M735.923,170.947h2.883v3.12c0.236-0.607,0.815-1.347,1.737-2.218s1.984-1.307,3.188-1.307
			c0.056,0,0.151,0.006,0.286,0.017c0.135,0.012,0.365,0.034,0.691,0.067v3.204c-0.18-0.034-0.346-0.056-0.497-0.067
			c-0.152-0.011-0.318-0.017-0.498-0.017c-1.528,0-2.703,0.491-3.524,1.476c-0.82,0.983-1.23,2.116-1.23,3.397v10.388h-3.035
			V170.947z"/>
		<path fill="#FFFFFF" d="M757.019,178.078c0.697-0.09,1.164-0.382,1.4-0.876c0.134-0.271,0.201-0.659,0.201-1.168
			c0-1.038-0.367-1.791-1.102-2.26c-0.735-0.468-1.787-0.702-3.155-0.702c-1.582,0-2.704,0.43-3.366,1.288
			c-0.37,0.475-0.611,1.181-0.724,2.118h-2.833c0.056-2.232,0.777-3.785,2.164-4.659c1.387-0.873,2.995-1.311,4.825-1.311
			c2.122,0,3.847,0.405,5.171,1.215c1.314,0.809,1.971,2.068,1.971,3.777v10.405c0,0.314,0.064,0.567,0.194,0.758
			c0.129,0.191,0.401,0.286,0.817,0.286c0.136,0,0.287-0.008,0.456-0.025c0.168-0.017,0.348-0.041,0.539-0.075v2.242
			c-0.472,0.135-0.832,0.22-1.079,0.253c-0.247,0.034-0.585,0.051-1.012,0.051c-1.046,0-1.805-0.371-2.276-1.112
			c-0.248-0.394-0.422-0.95-0.522-1.669c-0.619,0.809-1.507,1.512-2.665,2.107c-1.158,0.595-2.434,0.894-3.828,0.894
			c-1.675,0-3.043-0.509-4.105-1.524c-1.062-1.017-1.594-2.288-1.594-3.814c0-1.674,0.522-2.971,1.568-3.891
			c1.045-0.921,2.417-1.488,4.114-1.701L757.019,178.078z M750.628,186.278c0.641,0.504,1.399,0.757,2.276,0.757
			c1.067,0,2.102-0.247,3.103-0.741c1.687-0.819,2.529-2.16,2.529-4.023v-2.441c-0.37,0.237-0.847,0.435-1.431,0.592
			c-0.583,0.158-1.155,0.271-1.716,0.338l-1.835,0.236c-1.1,0.146-1.926,0.376-2.48,0.689c-0.938,0.527-1.408,1.369-1.408,2.523
			C749.666,185.083,749.986,185.773,750.628,186.278z"/>
		<path fill="#FFFFFF" d="M766.631,170.947h2.883v3.12c0.236-0.607,0.815-1.347,1.737-2.218s1.984-1.307,3.188-1.307
			c0.056,0,0.151,0.006,0.286,0.017c0.135,0.012,0.365,0.034,0.691,0.067v3.204c-0.18-0.034-0.346-0.056-0.497-0.067
			c-0.152-0.011-0.318-0.017-0.498-0.017c-1.528,0-2.703,0.491-3.524,1.476c-0.82,0.983-1.23,2.116-1.23,3.397v10.388h-3.035
			V170.947z"/>
		<path fill="#FFFFFF" d="M789.337,170.947h3.355c-0.427,1.159-1.377,3.802-2.85,7.93c-1.102,3.104-2.023,5.635-2.766,7.592
			c-1.752,4.605-2.987,7.414-3.706,8.426c-0.719,1.011-1.954,1.517-3.707,1.517c-0.427,0-0.755-0.018-0.985-0.051
			c-0.23-0.034-0.514-0.096-0.851-0.186v-2.766c0.527,0.146,0.909,0.236,1.145,0.27c0.235,0.034,0.443,0.051,0.623,0.051
			c0.561,0,0.974-0.093,1.237-0.277c0.264-0.186,0.485-0.413,0.665-0.682c0.056-0.09,0.258-0.55,0.605-1.38
			c0.348-0.831,0.601-1.448,0.758-1.852l-6.678-18.592h3.44l4.84,14.711L789.337,170.947z"/>
	</g>
</g>
</svg>
